<svg id="F1_Logo" data-name="F1 Logo" xmlns="http://www.w3.org/2000/svg" viewBox="0 0 192 48"><defs><style>.cls-1{fill:#fff;}</style></defs><title>F1_Logo_Standard_HighVisWht_RGB</title><path class="cls-1" d="M156.2,42.91h1.9V48h1.05V42.91h1.91V42H156.2ZM161.74,48h1V43.37h0L164.42,48h.86L167,43.37h0V48h1V42H166.5l-1.61,4.7h0L163.22,42h-1.48Z"/><path class="cls-1" d="M48.45,27.35,27.16,48H0L33.78,14.47C46.34,2,52.4,0,73.82,0h84.59L140.05,18H76.24C60.24,18,56.84,19.21,48.45,27.35Zm88.86-6.51H76.62c-16.11,0-18.63,1.24-25.94,8.55L32.06,48H57.24l6-6c3.95-4,5.72-4.34,13.7-4.34h43.54ZM143.87,48,192,0H162.1l-48,48Z"/></svg>